<?xml version="1.0" encoding="utf-8"?>
<!-- Generator: Adobe Illustrator 24.0.2, SVG Export Plug-In . SVG Version: 6.00 Build 0)  -->
<svg version="1.1" id="Layer_1" xmlns="http://www.w3.org/2000/svg" xmlns:xlink="http://www.w3.org/1999/xlink" x="0px" y="0px"
	 viewBox="0 0 17.6 17.6" style="enable-background:new 0 0 17.6 17.6;" xml:space="preserve">
<style type="text/css">
	.st0{opacity:0.3;}
	.st1{fill:#001F20;}
</style>
<g id="XMLID_1_" class="st0">
	<g>
		<path class="st1" d="M17.27,15.73c0.27,0.27,0.33,0.53,0.33,0.77c0,0.61-0.49,1.1-1.1,1.1c-0.35,0-0.57-0.13-0.77-0.33l-3.42-3.42
			c-1.29,0.97-2.88,1.55-4.61,1.55C3.45,15.4,0,11.95,0,7.7S3.45,0,7.7,0s7.7,3.45,7.7,7.7c0,1.73-0.58,3.33-1.55,4.62L17.27,15.73z
			 M13.2,7.7c0-3.04-2.46-5.5-5.5-5.5S2.2,4.66,2.2,7.7s2.46,5.5,5.5,5.5S13.2,10.74,13.2,7.7z"/>
	</g>
	<g>
	</g>
</g>
</svg>
