<?xml version="1.0" encoding="utf-8"?>
<!-- Generator: Adobe Illustrator 24.0.2, SVG Export Plug-In . SVG Version: 6.00 Build 0)  -->
<svg version="1.1" id="Layer_1" xmlns="http://www.w3.org/2000/svg" xmlns:xlink="http://www.w3.org/1999/xlink" x="0px" y="0px"
	 viewBox="0 0 1150 34" style="enable-background:new 0 0 1150 34;" xml:space="preserve">
<style type="text/css">
	.st0{fill:#FFFFFF;}
</style>
<path class="st0" d="M1121.48,1.01c-14.38,0-14.38,14-28.75,14c-14.37,0-14.37-14-28.75-14s-14.37,14-28.75,14
	c-14.38,0-14.38-14-28.75-14c-14.37,0-14.37,14-28.75,14c-14.37,0-14.37-14-28.75-14c-14.37,0-14.37,14-28.75,14s-14.38-14-28.75-14
	s-14.37,14-28.75,14s-14.38-14-28.75-14c-14.37,0-14.37,14-28.74,14c-14.38,0-14.38-14-28.75-14c-14.37,0-14.37,14-28.74,14
	c-14.37,0-14.37-14-28.75-14s-14.37,14-28.75,14c-14.37,0-14.37-14-28.75-14c-14.37,0-14.37,14-28.75,14c-14.38,0-14.38-14-28.75-14
	c-14.37,0-14.37,14-28.75,14c-14.37,0-14.37-14-28.75-14c-14.37,0-14.37,14-28.75,14c-14.37,0-14.37-14-28.75-14
	c-14.38,0-14.38,14-28.75,14c-14.38,0-14.38-14-28.75-14c-14.38,0-14.38,14-28.75,14c-14.38,0-14.38-14-28.75-14
	c-14.38,0-14.38,14-28.75,14c-14.38,0-14.38-14-28.75-14c-14.38,0-14.38,14-28.75,14c-14.38,0-14.38-14-28.75-14
	c-14.37,0-14.37,14-28.75,14c-14.38,0-14.38-14-28.75-14c-14.38,0-14.38,14-28.75,14c-14.38,0-14.38-14-28.75-14
	c-14.38,0-14.38,14-28.75,14c-14.38,0-14.38-14-28.76-14c-14.38,0-14.38,14-28.76,14c-14.38,0-14.38-14-28.76-14s-14.38,14-28.76,14
	v20h1150v-20C1135.85,15.01,1135.85,1.01,1121.48,1.01z"/>
</svg>
